<svg width="28" height="28" viewBox="0 0 28 28" fill="none" xmlns="http://www.w3.org/2000/svg">
<path d="M26.6637 8.61885C25.9731 7.09296 24.9819 5.723 23.7233 4.54238C22.4647 3.3729 21.0056 2.44846 19.3795 1.80246C17.6977 1.13419 15.9156 0.800049 14.0778 0.800049C12.2401 0.800049 10.458 1.13419 8.77619 1.80246C7.15006 2.44846 5.691 3.36176 4.43241 4.54238C3.17383 5.723 2.18257 7.09296 1.49202 8.61885C0.779193 10.2004 0.411621 11.8934 0.411621 13.6309C0.411621 16.6716 1.54768 19.5897 3.63046 21.9064L2.51667 27.9765L8.44206 25.3368C10.213 26.0942 12.0953 26.4729 14.0667 26.4729C15.9044 26.4729 17.6865 26.1388 19.3683 25.4705C20.9945 24.8245 22.4535 23.9112 23.7121 22.7306C24.9707 21.5499 25.962 20.18 26.6525 18.6541C27.3653 17.0725 27.7329 15.3796 27.7329 13.642C27.7441 11.8934 27.3765 10.2116 26.6637 8.61885Z" fill="#F5F2FF"/>
<path d="M19.6248 16.1924C19.0456 15.9029 18.6224 15.7246 18.3217 15.6133C18.1323 15.5464 17.6868 15.346 17.5309 15.4685C17.0408 15.8694 16.5173 17.0055 15.9604 17.2171C14.5793 16.9498 13.2985 16.0031 12.296 15.0341C11.8505 14.6109 11.0263 13.408 10.8481 13.085C10.8147 12.7508 11.4161 12.3053 11.5498 12.0491C12.2403 11.2695 11.7169 10.7794 11.6278 10.4564C11.4718 10.1223 11.2045 9.52084 10.9707 9.03077C10.7702 8.70777 10.7256 8.22884 10.3692 8.05064C8.85441 7.27098 7.98569 8.83029 7.62928 9.64335C5.47967 14.8225 18.3996 24.6795 21.0282 17.8854C21.1618 17.2951 21.1061 17.0723 20.9056 16.805C20.5047 16.5266 20.0369 16.4041 19.6248 16.1924Z" fill="#E63C3C"/>
</svg>
