<svg width="33" height="25" viewBox="0 0 33 25" fill="none" xmlns="http://www.w3.org/2000/svg">
<path fill-rule="evenodd" clip-rule="evenodd" d="M0 1.6444C0 0.736222 0.735165 0 1.64204 0H31.0961C32.0029 0 32.7381 0.736222 32.7381 1.6444V23.3556C32.7381 24.2638 32.0029 25 31.0961 25H1.64204C0.735165 25 0 24.2638 0 23.3556V1.6444ZM31.0961 1.6444L1.64204 1.6444V23.3556H31.0961V1.6444Z" fill="black"/>
<path fill-rule="evenodd" clip-rule="evenodd" d="M2.62975 23.5316C2.33109 23.8699 1.81228 23.9042 1.47095 23.6082C1.12962 23.3121 1.09504 22.7979 1.3937 22.4595L2.01172 22.9956L2.62975 23.5316ZM11.699 13.2578L2.63017 23.5311L2.62975 23.5316C2.62968 23.5317 2.62975 23.5316 2.01172 22.9956C1.3937 22.4595 1.39363 22.4596 1.3937 22.4595L10.4654 12.1829C10.4655 12.1828 10.7442 11.9776 11.0836 11.9048C11.5371 11.9048 11.9048 12.2692 11.9048 12.7188C11.9048 12.9255 11.827 13.1142 11.699 13.2578Z" fill="black"/>
<path fill-rule="evenodd" clip-rule="evenodd" d="M31.2518 23.6082C30.8915 23.9042 30.3439 23.8699 30.0286 23.5316L20.4528 13.2548C20.1376 12.9165 20.1741 12.4023 20.5344 12.1062C20.8946 11.8102 21.4423 11.8445 21.7575 12.1828L31.3334 22.4595C31.6486 22.7979 31.6121 23.3121 31.2518 23.6082Z" fill="black"/>
<path fill-rule="evenodd" clip-rule="evenodd" d="M16.9539 17.0188C16.631 17.343 16.1075 17.343 15.7847 17.0188L1.43286 2.60771C1.10999 2.28351 1.10999 1.75788 1.43286 1.43368C1.75572 1.10948 2.27919 1.10948 2.60206 1.43368L16.3693 15.2578L30.1365 1.43368C30.4594 1.10948 30.9828 1.10948 31.3057 1.43368C31.6286 1.75788 31.6286 2.28351 31.3057 2.60771L16.9539 17.0188Z" fill="black"/>
</svg>
