<svg width="40" height="39" viewBox="0 0 40 39" fill="none" xmlns="http://www.w3.org/2000/svg">
<path d="M33.3839 17.4195C33.872 17.8954 33.872 18.6671 33.3839 19.143C32.9333 19.5824 32.2242 19.6162 31.7339 19.2444L31.6161 19.143L20 7.81828L8.38388 19.143C7.93328 19.5824 7.22424 19.6162 6.73387 19.2444L6.61611 19.143C6.16551 18.7037 6.13085 18.0124 6.51213 17.5343L6.61612 17.4195L19.1161 5.23196C19.5667 4.79262 20.2758 4.75883 20.7661 5.13058L20.8839 5.23196L33.3839 17.4195Z" fill="white"/>
<path d="M18.75 8.53125C18.75 7.85815 19.3096 7.3125 20 7.3125C20.641 7.3125 21.1694 7.78299 21.2416 8.38912L21.25 8.53125L21.25 32.9062C21.25 33.5793 20.6904 34.125 20 34.125C19.359 34.125 18.8306 33.6545 18.7584 33.0484L18.75 32.9062L18.75 8.53125Z" fill="white"/>
</svg>
